<svg xmlns="http://www.w3.org/2000/svg" viewBox="0 0 512 512"><path d="M431,121.78V388.22A41.82,41.82,0,0,1,389.22,430H122.78A41.82,41.82,0,0,1,81,388.22V121.78A41.82,41.82,0,0,1,122.78,80H389.22A41.82,41.82,0,0,1,431,121.78Z" fill="#ecf9fd"/><path d="M431,121.78V388.22A41.82,41.82,0,0,1,389.22,430H256V80H389.22A41.82,41.82,0,0,1,431,121.78Z" fill="#d0eaf1"/><path d="M496,271H16c-19.84,0-19.85-30,0-30H496C515.84,241,515.85,271,496,271Z" fill="#97cbdc"/><path d="M496,271H256V241H496C515.84,241,515.85,271,496,271Z" fill="#97cbdc"/><path d="M482,127V55.34A25.37,25.37,0,0,0,456.66,30H385c-19.83,0-19.86-30,0-30h71.66A55.41,55.41,0,0,1,512,55.34V127C512,146.83,482,146.86,482,127Z" fill="#001b48"/><path d="M456.66,512H385c-19.83,0-19.86-30,0-30h71.66A25.37,25.37,0,0,0,482,456.66V385c0-19.83,30-19.86,30,0v71.66A55.41,55.41,0,0,1,456.66,512Z" fill="#001b48"/><path d="M0,127V55.34A55.41,55.41,0,0,1,55.34,0H127c19.83,0,19.86,30,0,30H55.34A25.37,25.37,0,0,0,30,55.34V127C30,146.83,0,146.86,0,127Z" fill="#004581"/><path d="M127,512H55.34A55.41,55.41,0,0,1,0,456.66V385c0-19.83,30-19.86,30,0v71.66A25.37,25.37,0,0,0,55.34,482H127C146.83,482,146.86,512,127,512Z" fill="#004581"/><path d="M389.22,430H341.64c-19.83,0-19.86-30,0-30h47.58A11.79,11.79,0,0,0,401,388.22V340.64c0-19.83,30-19.86,30,0v47.58A41.82,41.82,0,0,1,389.22,430Z" fill="#001b48"/><path d="M401,169.36V121.78A11.79,11.79,0,0,0,389.22,110H341.64c-19.83,0-19.86-30,0-30h47.58A41.82,41.82,0,0,1,431,121.78v47.58C431,189.19,401,189.22,401,169.36Z" fill="#001b48"/><path d="M81,169.36V121.78A41.82,41.82,0,0,1,122.78,80h47.58c19.83,0,19.86,30,0,30H122.78A11.79,11.79,0,0,0,111,121.78v47.58C111,189.19,81,189.22,81,169.36Z" fill="#004581"/><path d="M170.36,430H122.78A41.82,41.82,0,0,1,81,388.22V340.64c0-19.83,30-19.86,30,0v47.58A11.8,11.8,0,0,0,122.78,400h47.58C190.19,400,190.22,430,170.36,430Z" fill="#004581"/><path d="M345.48,174.13l-90.18-27a4.57,4.57,0,0,0-2.59,0l-90.18,27a4.51,4.51,0,0,0-3.22,4.32v99.2c0,39.87,60.8,75.34,93.36,85.47a4.44,4.44,0,0,0,2.7,0c32.52-10.13,93.32-45.6,93.32-85.47v-99.2A4.52,4.52,0,0,0,345.48,174.13Z" fill="#004581"/><path d="M245,291.18a4.51,4.51,0,0,1-3.19-1.32l-36.07-36.07a4.51,4.51,0,0,1,6.37-6.38L245,280.29l59.93-59.93a4.51,4.51,0,0,1,6.49,6.26.57.57,0,0,1-.11.11l-63.12,63.13A4.54,4.54,0,0,1,245,291.18Z" fill="#fafafa"/></svg>