<svg id="Layer_1" enable-background="new 0 0 512 512" height="512" viewBox="0 0 512 512" width="512" xmlns="http://www.w3.org/2000/svg"><g><path d="m248.5 2.01-208.714 120.5c-4.641 2.679-7.5 7.631-7.5 12.99v241c0 5.359 2.859 10.311 7.5 12.99l208.714 120.5c4.641 2.679 10.359 2.679 15 0l208.714-120.5c4.641-2.68 7.5-7.631 7.5-12.99v-241c0-5.359-2.859-10.311-7.5-12.99l-208.714-120.5c-4.641-2.68-10.359-2.68-15 0z" fill="#ffb454"/><path d="m256 256 221.705-128c-1.295-2.243-3.17-4.151-5.49-5.49l-208.715-120.5c-4.641-2.679-10.359-2.679-15 0l-208.714 120.5c-2.321 1.34-4.196 3.248-5.49 5.49z" fill="#ffd321"/><path d="m477.705 128c-1.295-2.243-3.17-4.151-5.49-5.49l-208.715-120.5c-2.321-1.34-4.91-2.01-7.5-2.01v256z" fill="#ffb454"/><path d="m256 512c2.59 0 5.179-.67 7.5-2.01l208.714-120.5c4.641-2.68 7.5-7.631 7.5-12.99v-241c0-2.679-.715-5.257-2.01-7.5l-221.704 128z" fill="#ff936b"/><path d="m332.385 315.324 86.106-49.709c7.174-4.142 9.633-13.315 5.491-20.489s-13.315-9.636-20.49-5.491l-86.106 49.709c-7.174 4.142-9.633 13.315-5.491 20.489 3.72 6.443 12.651 10.018 20.49 5.491z" fill="#1e354b"/><path d="m423.983 331.231c-4.142-7.175-13.316-9.635-20.49-5.49l-86.106 49.71c-7.175 4.142-9.633 13.315-5.491 20.49 3.689 6.391 12.589 10.054 20.49 5.49l86.106-49.71c7.174-4.141 9.632-13.315 5.491-20.49z" fill="#1e354b"/><path d="m330.654 40.776-223.714 129.16-.062 77.258c-.004 5.363 2.855 10.32 7.5 13.002l44.63 25.77c10 5.774 22.5-1.443 22.5-12.99v-59.986l223.714-129.16z" fill="#fff7f4"/><g fill="#f0e6e6"><path d="m256 83.878v86.105l149.22-86.152-74.57-43.053z"/><path d="m181.509 272.976v-59.986l-74.568-43.053-.062 77.258c-.004 5.363 2.855 10.32 7.499 13.002l44.63 25.77c10 5.774 22.501-1.443 22.501-12.991z"/></g></g></svg>