<svg id="Capa_1" enable-background="new 0 0 512 512" height="512" viewBox="0 0 512 512" width="512" xmlns="http://www.w3.org/2000/svg"><g><path d="m512 256c0 84.34-40.79 159.16-103.72 205.8h-304.56c-62.93-46.64-103.72-121.46-103.72-205.8 0-46.22 12.25-89.57 33.68-127 44.12-77.07 127.16-129 222.32-129s178.2 51.93 222.32 129c21.43 37.43 33.68 80.78 33.68 127z" fill="#00adff"/><path d="m512 256c0 84.34-40.79 159.16-103.72 205.8h-304.56c-62.93-46.64-103.72-121.46-103.72-205.8 0-46.22 12.25-89.57 33.68-127 44.12 77.07 127.16 129 222.32 129s178.21-51.93 222.32-129c21.43 37.43 33.68 80.78 33.68 127z" fill="#0092ff"/><g><path d="m256 67.81 35.303 70.573-35.303 71.857h-113.05v-39.13c0-17.75 4.1-34.53 11.39-49.48-3.67-8.67-6.52-17.77-8.45-27.21s-2.94-19.21-2.94-29.22c0-7.56 8.25-12.17 14.73-8.28 11.78 7.07 25.35 10.89 39.31 10.89z" fill="#964235"/><path d="m369.05 167.07v43.17h-81.06c-10.2 0-20.14-1.06-29.74-3.06l-2.25 3.06v-142.43h13.79c19.43 0 35.19 15.76 35.19 35.19 35.38 0 64.07 28.69 64.07 64.07z" fill="#87342b"/><g><g><path d="m293.46 401.97-37.46 110.03c-8.42 0-16.74-.41-24.94-1.2-.34-.03-.69-.07-1.03-.1l-78.39-80.25 54.61-115.58.33-.12c15.5-5.32 32.12-8.2 49.42-8.2z" fill="#e0f8fc"/><path d="m360.33 430.7-78.11 79.97c-.03 0-.05.01-.08.01-.4.04-.8.08-1.2.12-8.21.79-16.53 1.2-24.94 1.2v-205.45c17.35 0 34.03 2.9 49.58 8.25z" fill="#92eaff"/><path d="m278.02 476.22-22.02 35.78c-8.77 0-17.43-.44-25.97-1.3l-44.28-146.04 70.25 73.13z" fill="#162352"/><path d="m326.25 364.66v.54l-44.11 145.48c-8.6.87-17.32 1.32-26.14 1.32v-74.21z" fill="#0d1838"/><path d="m408.31 458.86c0 .98-.03 2.94-.03 2.94-35.98 26.66-79.18 44.12-126.14 48.88l23.44-195.88c9.41 3.24 18.4 7.37 26.87 12.3.01 0 .03.01.04.02h.01c8.56 4.98 16.58 10.78 23.98 17.29 18.57 16.3 33.14 37.07 42.04 60.62 6.33 16.74 9.79 34.88 9.79 53.83z" fill="#162352"/><g><g><g><g><g><g><g><g><g><g><g><g><g><g><g><g><g><g><g><g><g><path d="m256 279.34 14.955 43.796-14.955 45.244h-.23c-.65 0-1.29-.02-1.93-.05-20.82-.89-36.99-18.58-36.92-39.43l.17-49.69z" fill="#ffa87a"/></g><path d="m295.08 279.47-.17 49.7c-.07 20.84-16.35 38.41-37.18 39.18-.58.02-1.15.03-1.73.03v-89.04z" fill="#f99569"/><path d="m256 368.38-39.08-64.574-10.524 10.748 8.637 72.208z" fill="#fff"/><path d="m103.72 461.8c0-.01 0-.01 0-.01-.02-.97-.03-1.95-.03-2.93 0-45.62 20.06-86.55 51.83-114.47 7.39-6.49 15.41-12.28 23.97-17.26 8.54-4.97 17.6-9.13 27.09-12.38l23.45 195.95c-47.02-4.74-90.29-22.21-126.31-48.9z" fill="#1a3760"/><path d="m256 368.38 39.08-64.574 10.524 10.748-8.637 72.208z" fill="#e0f8fc"/><path d="m256 160.81-58.59 22.76c-14.431 5.606-29.64 8.885-45.07 9.728v-15.998c0-4.22-1.71-8.04-4.48-10.81-.1-.1-.21-.21-.32-.31-2.73-2.58-6.42-4.16-10.48-4.17-14.64-.05-26.54 11.78-26.59 26.42-.085 25.249 19.235 46.028 43.927 48.234 1.688 8.29 4.36 16.225 7.903 23.666.02.05.05.1.07.15.01-.1.02-.15.02-.15 8.29 17.43 21.31 32.18 37.4 42.59 16.09 10.42 35.26 16.49 55.85 16.56h.45l54.3-77.69z" fill="#ffc0a4"/><path d="m401.42 188.43c-.05-14.64-11.95-26.47-26.59-26.42-4 .01-7.64 1.55-10.37 4.06-.15.14-.3.28-.44.42-2.76 2.77-4.47 6.59-4.47 10.81l-.02 12.96c-4.96-7.32-11.82-13-19.71-16.53-14.25-6.36-26.3-16.8-33.97-30.39l-.87-1.55-48.98 19.02v158.67h.09c41.25-.04 76.89-24.19 93.52-59.15h-.09c3.544-7.439 6.221-15.371 7.912-23.661 24.722-2.178 44.073-22.969 43.988-48.239z" fill="#ffa87a"/><path d="" fill="#ffc0a4"/></g></g></g></g></g></g></g></g></g></g></g></g></g></g></g></g></g><path d="m255.916 243.805c-4.347-.015-7.86-3.551-7.845-7.898l.114-33.796c.015-4.347 3.551-7.86 7.898-7.845 4.348.015 7.86 3.551 7.846 7.898l-.114 33.796c-.015 4.347-3.551 7.859-7.899 7.845z" fill="#e57870"/><g><g><g><ellipse cx="223.412" cy="213.332" fill="#1a3760" rx="12.756" ry="12.756" transform="matrix(.491 -.871 .871 .491 -72.082 303.371)"/><ellipse cx="288.415" cy="213.552" fill="#162352" rx="12.756" ry="12.756" transform="matrix(.552 -.834 .834 .552 -48.853 336.181)"/></g></g><g><path d="m241.442 193.726c-2.933-6.999-9.837-11.927-17.903-11.954s-15.004 4.853-17.984 11.833z" fill="#964235"/><path d="m306.445 193.946c-2.933-6.999-9.837-11.927-17.903-11.954s-15.004 4.853-17.984 11.833z" fill="#87342b"/></g></g></g></g></g></g><path d="m256 260.86 11.786 15.187-11.786 15.393c-10.52-.03-21.06-1.05-24.73-3.04-5.02-2.7-9.55-6.18-13.42-10.3-6.18-6.57-1.34-17.37 7.67-17.34z" fill="#1a3760"/><path d="m294.1 278.36c-3.9 4.09-8.45 7.55-13.48 10.21-3.68 1.95-14.14 2.9-24.62 2.87v-30.58l30.55.11c9.01.03 13.78 10.86 7.55 17.39z" fill="#162352"/><path d="m256 277.67 9.283 8.457-9.283 8.523h-.08c-8.92-.03-17.32-2.29-24.65-6.25 6.16-6.63 14.95-10.77 24.71-10.73z" fill="#ff619e"/><path d="m280.62 288.57c-7.35 3.9-15.72 6.1-24.62 6.08v-16.98c9.74.04 18.5 4.23 24.62 10.9z" fill="#ff4784"/></g></g><g><path d="m251.32 368.876v10.572l-16.084 13.911c-5.247 4.538-13.398.811-13.398-6.126 0-3.908 1.553-7.655 4.317-10.418l2.655-2.653-2.655-2.653c-2.764-2.762-4.317-6.51-4.317-10.418 0-6.937 8.152-10.664 13.398-6.126z" fill="#1a3760"/><path d="m261.001 368.876v10.572l16.083 13.911c5.247 4.538 13.398.811 13.398-6.126 0-3.908-1.553-7.655-4.317-10.418l-2.655-2.653 2.655-2.653c2.764-2.762 4.317-6.51 4.317-10.418 0-6.937-8.152-10.664-13.398-6.126z" fill="#162352"/></g><path d="m256 362.46 6.814 13.81-6.814 9.6c-4.77 0-8.64-3.87-8.64-8.64v-6.13c0-4.77 3.87-8.64 8.64-8.64z" fill="#162352"/><path d="m264.64 371.1v6.13c0 4.77-3.87 8.64-8.64 8.64v-23.41c2.38 0 4.54.97 6.11 2.53 1.56 1.57 2.53 3.73 2.53 6.11z" fill="#0d1838"/></g></svg>