<svg xmlns="http://www.w3.org/2000/svg" viewBox="0 0 601 601"><rect x="31.5" y="31.5" width="538" height="538" fill="none" stroke="gray" stroke-miterlimit="10" stroke-opacity="0"/><rect x="0.5" y="0.5" width="600" height="600" fill="none" stroke="gray" stroke-miterlimit="10" stroke-opacity="0"/><path d="M315.56,108.76h0a3.65,3.65,0,0,0-.14-.35,15.78,15.78,0,0,0-29.19,0L240.62,228.13A13,13,0,1,0,265,237.41l8.13-21.34h55.06l8,21.3a13.05,13.05,0,0,0,25.26-4.5,12.84,12.84,0,0,0-.86-4.71ZM318.34,190H283.05l17.73-46.53Z" fill="#4a4a4a"/><path d="M213,422.1A39,39,0,0,0,180.75,361H147.91a13.05,13.05,0,0,0-13,13V487.11a13.12,13.12,0,0,0,3.84,9.24,13,13,0,0,0,9.25,3.8h.78c11.31,0,31.25-.13,37.75-.13A43.45,43.45,0,0,0,213,422.1Zm-52,17.08h25.54a17.39,17.39,0,1,1,0,34.78c-4.66,0-16.26,0-25.54.08ZM180.75,413H161V387h19.8a13,13,0,0,1,0,26Z" fill="#4a4a4a"/><path d="M476.64,461.16a13,13,0,0,0-18.32,1.55l-.05.06a32.53,32.53,0,0,1-3.27,3.37c-5.9,5.26-13.42,7.93-22.35,7.93A43.5,43.5,0,1,1,457,394.5a13,13,0,1,0,14.6-21.61,69.57,69.57,0,1,0-38.9,127.26c15.3,0,29-5,39.69-14.53a58.62,58.62,0,0,0,5.91-6.09A13,13,0,0,0,476.64,461.16Z" fill="#4a4a4a"/><path d="M512.23,284.84H436.56a56.2,56.2,0,0,0,6-25.45V88.77A56.84,56.84,0,0,0,385.81,32H215.19a56.84,56.84,0,0,0-56.77,56.77V259.39a56.2,56.2,0,0,0,6,25.45H88.77A56.84,56.84,0,0,0,32,341.61V512.23A56.84,56.84,0,0,0,88.77,569H259.39a56.25,56.25,0,0,0,41.11-17.64A56.25,56.25,0,0,0,341.61,569H512.23A56.84,56.84,0,0,0,569,512.23V341.61A56.84,56.84,0,0,0,512.23,284.84ZM259.39,537.68H88.77a25.47,25.47,0,0,1-25.45-25.45V341.61a25.48,25.48,0,0,1,25.45-25.45H259.39a25.48,25.48,0,0,1,25.45,25.45V512.23A25.48,25.48,0,0,1,259.39,537.68Zm252.84,0H341.61a25.48,25.48,0,0,1-25.45-25.45V341.61a25.48,25.48,0,0,1,25.45-25.45H512.23a25.48,25.48,0,0,1,25.45,25.45V512.23A25.47,25.47,0,0,1,512.23,537.68Zm-297-474.36H385.81a25.48,25.48,0,0,1,25.45,25.45V259.39a25.48,25.48,0,0,1-25.45,25.45H215.19a25.48,25.48,0,0,1-25.45-25.45V88.77a25.48,25.48,0,0,1,25.45-25.45Z" fill="#4a4a4a"/></svg>