<svg xmlns="http://www.w3.org/2000/svg" viewBox="0 0 601 601"><rect x="28.5" y="31.5" width="538" height="538" fill="none" stroke="gray" stroke-miterlimit="10" stroke-opacity="0"/><rect x="0.5" y="0.5" width="600" height="600" fill="none" stroke="gray" stroke-miterlimit="10" stroke-opacity="0"/><path d="M509.23,284.84H433.56a56.2,56.2,0,0,0,6-25.45V88.77A56.84,56.84,0,0,0,382.81,32H212.19a56.84,56.84,0,0,0-56.77,56.77V259.39a56.2,56.2,0,0,0,6,25.45H85.77A56.84,56.84,0,0,0,29,341.61V512.23A56.84,56.84,0,0,0,85.77,569H256.39a56.25,56.25,0,0,0,41.11-17.64A56.25,56.25,0,0,0,338.61,569H509.23A56.84,56.84,0,0,0,566,512.23V341.61A56.84,56.84,0,0,0,509.23,284.84ZM256.39,537.68H85.77a25.47,25.47,0,0,1-25.45-25.45V341.61a25.48,25.48,0,0,1,25.45-25.45H256.39a25.48,25.48,0,0,1,25.45,25.45V512.23A25.48,25.48,0,0,1,256.39,537.68Zm252.84,0H338.61a25.48,25.48,0,0,1-25.45-25.45V341.61a25.48,25.48,0,0,1,25.45-25.45H509.23a25.48,25.48,0,0,1,25.45,25.45V512.23A25.47,25.47,0,0,1,509.23,537.68Zm-297-474.36H382.81a25.48,25.48,0,0,1,25.45,25.45V259.39a25.48,25.48,0,0,1-25.45,25.45H212.19a25.48,25.48,0,0,1-25.45-25.45V88.77a25.48,25.48,0,0,1,25.45-25.45Z" fill="#4a4a4a"/><path d="M325,222h-9.33V110.23a16,16,0,0,0-16-16c-14.76-2.11-28.91,37.34-36.13,45.77-8.13,12.8,6.59,29.27,20.2,22.76V222c-29.42-5-34.36,29.1-9.32,32h50.48c20.73.31,20.75-32.27,0-32Z" fill="#4a4a4a"/><path d="M267.17,142.12c-6.61,8.63,4.35,21.18,14.33,17,.11.08,6.17,3.43,6.43,3.35V213c-5-.86-8.62,13.79-10.68,16.1-1.81,2-11.28,4.74-10.63,7.18-4.16,2.83-1.62,13.1,7.81,13.53h50.48A10.19,10.19,0,0,0,335,243c3.42-10.44-8.18-16.38-18.9-16.75l0,0-4.67-3.81V120.56c0-4.41-3.57-18.32-8-18.32-1.69-2.34-5.1-3.23-8.81-1.67C285.55,104.42,271.34,136.67,267.17,142.12Z" fill="#4a4a4a"/><path d="M274.47,230.36c-9.87-.15-9.9,15.37,0,15.23H325a7.62,7.62,0,0,0,7.61-7.62c.35-11.52-18.71-6.64-25.24-7.61V110.23a7.59,7.59,0,0,0-7.57-7.63c-7.26-2.25-25.18,38-28.92,41.62-3.5,5.57,2.11,13.09,8.46,11.25.23.15,12.33-5.36,12.86-5.51v80.4Z" fill="#4a4a4a"/><path d="M209.53,475h-34.7c19.91-20.51,41.24-49.27,41.24-78.31,0-29.79-20-49.85-49.85-49.85a49.85,49.85,0,0,0-49.86,49.85,16,16,0,0,0,32,1c0-.33,0-.67,0-1a17.8,17.8,0,0,1,17.79-17.78c16,0,17.79,10.15,17.79,17.78,0,29.68-45.18,69.74-61.07,81.41A16,16,0,0,0,132.36,507h77.17a16,16,0,1,0,1-32A8.34,8.34,0,0,0,209.53,475Z" fill="#4a4a4a"/><path d="M469.88,395a48.14,48.14,0,0,0-48.08-48.08H394A16.06,16.06,0,0,0,394,379H421.8a16,16,0,0,1,2.35,31.74H394a16.06,16.06,0,1,0,0,32.11h11.18a15.89,15.89,0,0,0,2.75.25h16.21a16,16,0,0,1-2.35,31.74H394A16.06,16.06,0,0,0,394,507H421.8a48,48,0,0,0,35.92-80A47.81,47.81,0,0,0,469.88,395Z" fill="#4a4a4a"/></svg>