<svg xmlns="http://www.w3.org/2000/svg" viewBox="0 0 601 601">
  <path d="M553.19,182.31a16.82,16.82,0,0,1-16.82-16.81V79.34a14.72,14.72,0,0,0-14.71-14.72H435.5a16.81,16.81,0,0,1,0-33.62h86.16A48.39,48.39,0,0,1,570,79.34V165.5A16.83,16.83,0,0,1,553.19,182.31Z" fill="#4a4a4a" />
  <path d="M48.81,182.31A16.83,16.83,0,0,1,32,165.5V79.34A48.39,48.39,0,0,1,80.34,31H166.5a16.81,16.81,0,0,1,0,33.62H80.34A14.73,14.73,0,0,0,65.62,79.34V165.5a16.82,16.82,0,0,1-16.81,16.81Z" fill="#4a4a4a" />
  <path d="M166.5,569H80.34A48.39,48.39,0,0,1,32,520.66V434.5a16.81,16.81,0,0,1,33.62,0v86.16a14.72,14.72,0,0,0,14.72,14.71H166.5a16.82,16.82,0,0,1,0,33.63Z" fill="#4a4a4a" />
  <path d="M521.66,569H435.5a16.82,16.82,0,0,1,0-33.63h86.16a14.73,14.73,0,0,0,14.71-14.71V434.5a16.82,16.82,0,0,1,33.63,0v86.16A48.39,48.39,0,0,1,521.66,569Z" fill="#4a4a4a" />
  <path d="M235.85,283.19H147.59a48.39,48.39,0,0,1-48.34-48.34V146.59a48.39,48.39,0,0,1,48.34-48.34h88.26a48.39,48.39,0,0,1,48.34,48.34v88.26A48.4,48.4,0,0,1,235.85,283.19ZM147.59,131.87a14.73,14.73,0,0,0-14.72,14.72v88.26a14.74,14.74,0,0,0,14.72,14.71h88.26a14.73,14.73,0,0,0,14.71-14.71V146.59a14.74,14.74,0,0,0-14.71-14.72Z" fill="#4a4a4a" />
  <path d="M235.85,501.75H147.59a48.39,48.39,0,0,1-48.34-48.34V365.15a48.39,48.39,0,0,1,48.34-48.34h88.26a48.4,48.4,0,0,1,48.34,48.34v88.26A48.39,48.39,0,0,1,235.85,501.75ZM147.59,350.44a14.74,14.74,0,0,0-14.72,14.71v88.26a14.72,14.72,0,0,0,14.72,14.71h88.26a14.73,14.73,0,0,0,14.71-14.71V365.15a14.73,14.73,0,0,0-14.71-14.71Z" fill="#4a4a4a" />
  <path d="M454.41,283.19H366.15a48.4,48.4,0,0,1-48.34-48.34V146.59a48.39,48.39,0,0,1,48.34-48.34h88.26a48.39,48.39,0,0,1,48.34,48.34v88.26A48.39,48.39,0,0,1,454.41,283.19ZM366.15,131.87a14.74,14.74,0,0,0-14.71,14.72v88.26a14.73,14.73,0,0,0,14.71,14.71h88.26a14.73,14.73,0,0,0,14.71-14.71V146.59a14.72,14.72,0,0,0-14.71-14.72Z" fill="#4a4a4a" />
  <path d="M475.43,400.87H435.5V344.13a27.36,27.36,0,0,0-27.32-27.32H345.13a27.36,27.36,0,0,0-27.32,27.32v63.05a27.36,27.36,0,0,0,27.32,27.32h56.74v39.93a27.37,27.37,0,0,0,27.33,27.32h46.23a27.36,27.36,0,0,0,27.32-27.32V428.2A27.37,27.37,0,0,0,475.43,400.87Zm-124-50.43h50.43v50.43H351.44ZM469.12,468.12H435.5V434.5h33.62Z" fill="#4a4a4a" />
  <path d="M200.12,215.94H183.31a16.82,16.82,0,0,1-16.81-16.82V182.31a16.83,16.83,0,0,1,16.81-16.81h16.81a16.82,16.82,0,0,1,16.82,16.81v16.81a16.82,16.82,0,0,1-16.82,16.82Z" fill="#4a4a4a" />
  <path d="M418.69,215.94H401.87a16.82,16.82,0,0,1-16.81-16.82V182.31a16.83,16.83,0,0,1,16.81-16.81h16.82a16.83,16.83,0,0,1,16.81,16.81v16.81A16.82,16.82,0,0,1,418.69,215.94Z" fill="#4a4a4a" />
  <path d="M200.12,434.5H183.31a16.83,16.83,0,0,1-16.81-16.81V400.87a16.83,16.83,0,0,1,16.81-16.81h16.81a16.82,16.82,0,0,1,16.82,16.81v16.82A16.82,16.82,0,0,1,200.12,434.5Z" fill="#4a4a4a" />
  <rect x="32" y="31" width="538" height="538" fill="none" stroke="gray" stroke-miterlimit="10" stroke-opacity="0" />
  <rect x="0.5" y="0.5" width="600" height="600" fill="none" stroke="gray" stroke-miterlimit="10" stroke-opacity="0" />
</svg>